<?xml version="1.0"?>
<svg xmlns:rdf="http://www.w3.org/1999/02/22-rdf-syntax-ns#" xmlns="http://www.w3.org/2000/svg" xmlns:cc="http://creativecommons.org/ns#" xmlns:dc="http://purl.org/dc/elements/1.1/" xmlns:svg="http://www.w3.org/2000/svg" id="svg3029" viewBox="0 0 148.91 238.67" version="1.1">
  <g id="layer1" transform="translate(-405.54 -364.46)">
    <path id="path3040-7-4" stroke="#fff" stroke-width="1.0513" d="m479.04 516.18 18.98-3.4892-1.0983 23.41 30.143-0.23507-4.2795 17.747-27.993-2.0044 0.49699 46.357-20.861 4.6398 4.6108-51.508-25.201 1.8271-2.853-20.263 29.088 2.5241z"/>
    <path id="path3030" d="m229.83 81.641-20.122 4.7688-14.204-8.7972-4.0943-15.513 16.758-18.739 14.831 0.78582 7.7971 17.264z" transform="matrix(.64715 0 0 .64715 316.37 446.68)" stroke="#000" stroke-linecap="round" stroke-width="1.1"/>
    <path id="path3032" d="m354.2 149.9-10.146 0.97668-8.3316-11.108-2.2612-13.144 15.93-3.6428 8.2255 1.4485 5.7006 15.499z" transform="translate(77.6 332.29)" stroke="#000" stroke-linecap="round" stroke-width="1.1"/>
    <path id="path3034" d="m403.59 140.98-13.631-1.602-5.781-8.5916-2.109-7.6775 11.563-10.904 12.585 3.618 3.0165 9.5656z" transform="translate(24.028 309.43)" stroke="#000" stroke-linecap="round" stroke-width="1.1"/>
    <path id="path3036" d="m403.97 171-6.8196 1.7281-9.0471-11.295 0.74002-10.375 10.309-6.3876 8.8343 3.2528 4.642 12.195z" transform="translate(27.6 245.15)" stroke="#000" stroke-linecap="round" stroke-width="1.1"/>
    <path id="path3038" d="m442.93 162.99-11.067 0.3665-11.916-4.182 0.14351-13.18 10.721-6.8257 8.2843 3.1621 6.0357 6.7157z" transform="translate(21.171 231.58)" stroke="#000" stroke-linecap="round" stroke-width="1.1"/>
    <path id="path3040" d="m445.63 113.39-12.313-5.1692-6.528-9.7689 3.577-8.0434 11.495-7.6991 10.272 8.2265 3.6594 12.732z" transform="translate(44.743 282.29)" stroke="#000" stroke-linecap="round" stroke-width="1.1"/>
    <path id="path3042" d="m480.16 156.05-9.6288 8.9295-10.503-4.3559-5.0886-11.483 6.1404-7.7145 9.3989-3.5558 9.455 6.9908z" transform="translate(49.028 242.29)" stroke="#000" stroke-linecap="round" stroke-width="1.1"/>
    <path id="path3044" d="m528.6 138.27-12.383 6.9481-7.2714-6.7228-4.8521-11.131 6.2146-10.622 14.537 2.4168 7.89 6.4877z" transform="translate(21.171 322.29)" stroke="#000" stroke-linecap="round" stroke-width="1.1"/>
    <path id="path3046" d="m563.67 108.15-8.4228-4.072-7.9507-7.0596 1.6651-11.516 10.182-8.6946 11.811 4.0342 4.0674 12.104z" fill="#f00" transform="translate(-74.543 404.43)"/>
    <path id="path3048" d="m570.1 157.98-14.725-2.1862-3.4289-13.009 5.3636-9.4336 11.138-2.6396 8.9697 5.7635 0.75292 10.249z" transform="translate(-45.257 338.01)" stroke="#000" stroke-linecap="round" stroke-width="1.1"/>
    <path id="path3050" d="m514.21 211.11-9.7488 4.5065-9.5456-6.0781-4.4418-7.743 10.068-12.623 10.218 0.0964 7.9616 12.207z" transform="translate(32.6 217.29)" stroke="#000" stroke-linecap="round" stroke-width="1.1"/>
  </g>
  <metadata>
    <rdf:RDF>
      <cc:Work>
        <dc:format>image/svg+xml</dc:format>
        <dc:type rdf:resource="http://purl.org/dc/dcmitype/StillImage"/>
        <cc:license rdf:resource="http://creativecommons.org/licenses/publicdomain/"/>
        <dc:publisher>
          <cc:Agent rdf:about="http://openclipart.org/">
            <dc:title>Openclipart</dc:title>
          </cc:Agent>
        </dc:publisher>
        <dc:title>Rosary</dc:title>
        <dc:date>2013-09-11T14:49:45</dc:date>
        <dc:description/>
        <dc:source>http://openclipart.org/detail/183306/rosary-by-ictusgpr-183306</dc:source>
        <dc:creator>
          <cc:Agent>
            <dc:title>ictusgpr</dc:title>
          </cc:Agent>
        </dc:creator>
        <dc:subject>
          <rdf:Bag>
            <rdf:li>Religion</rdf:li>
            <rdf:li>catholic</rdf:li>
            <rdf:li>christian</rdf:li>
            <rdf:li>mary</rdf:li>
            <rdf:li>pray</rdf:li>
          </rdf:Bag>
        </dc:subject>
      </cc:Work>
      <cc:License rdf:about="http://creativecommons.org/licenses/publicdomain/">
        <cc:permits rdf:resource="http://creativecommons.org/ns#Reproduction"/>
        <cc:permits rdf:resource="http://creativecommons.org/ns#Distribution"/>
        <cc:permits rdf:resource="http://creativecommons.org/ns#DerivativeWorks"/>
      </cc:License>
    </rdf:RDF>
  </metadata>
</svg>
